<svg id="calendar" xmlns="http://www.w3.org/2000/svg" viewBox="0 0 59 64"><title>calendar1</title><path d="M5.26,58h9.92V48.24H5.26Zm12.12,0h11V48.24h-11ZM5.26,46.08h9.92V35.25H5.26Zm12.12,0h11V35.25h-11Zm-12.12-13h9.92V23.34H5.26ZM30.6,58h11V48.24h-11ZM17.37,33.08h11V23.34h-11ZM43.81,58h9.92V48.24H43.81ZM30.6,46.08h11V35.25h-11ZM18.48,16.84V7.1a1,1,0,0,0-.33-.76A1.06,1.06,0,0,0,17.38,6H15.17a1.06,1.06,0,0,0-.77.32,1,1,0,0,0-.33.76v9.75a1,1,0,0,0,.33.76,1.06,1.06,0,0,0,.77.32h2.22a1.06,1.06,0,0,0,.77-.32A1,1,0,0,0,18.48,16.84ZM43.81,46.08h9.92V35.25H43.81Zm-13.22-13h11V23.34h-11Zm13.22,0h9.92V23.34H43.81Zm1.1-16.24V7.1a1,1,0,0,0-.33-.76A1.06,1.06,0,0,0,43.81,6H41.61a1.06,1.06,0,0,0-.77.32,1,1,0,0,0-.33.76v9.75a1,1,0,0,0,.33.76,1.06,1.06,0,0,0,.77.32h2.22a1.09,1.09,0,0,0,.77-.32A1,1,0,0,0,44.91,16.84Zm13.23-2.17V58a4.12,4.12,0,0,1-1.31,3,4.27,4.27,0,0,1-3.09,1.29H5.26A4.27,4.27,0,0,1,2.16,61,4.12,4.12,0,0,1,.85,58V14.67a4.12,4.12,0,0,1,1.31-3,4.27,4.27,0,0,1,3.09-1.29H9.66V7.1a5.16,5.16,0,0,1,1.62-3.82,5.36,5.36,0,0,1,3.89-1.59h2.2a5.36,5.36,0,0,1,3.89,1.59A5.16,5.16,0,0,1,22.89,7.1v3.25H36.1V7.1a5.16,5.16,0,0,1,1.62-3.82,5.37,5.37,0,0,1,3.9-1.59h2.2a5.36,5.36,0,0,1,3.89,1.59A5.16,5.16,0,0,1,49.34,7.1v3.25h4.41a4.25,4.25,0,0,1,3.09,1.29,4.17,4.17,0,0,1,1.31,3Z"/></svg>