<svg id="credit-card" data-name="credit_card" xmlns="http://www.w3.org/2000/svg" viewBox="0 0 69 64"><path d="M62.2 5.41A5.33 5.33 0 0 1 66.11 7a5.34 5.34 0 0 1 1.63 4v42.1a5.56 5.56 0 0 1-5.54 5.54H6.79A5.33 5.33 0 0 1 2.88 57a5.29 5.29 0 0 1-1.62-3.91V11a5.34 5.34 0 0 1 1.63-4 5.32 5.32 0 0 1 3.9-1.63H62.2zM6.79 9.84a1.13 1.13 0 0 0-1.11 1.11v7.75h57.63v-7.75a1.13 1.13 0 0 0-1.11-1.11zm55.4 44.32a1.13 1.13 0 0 0 1.11-1.11V32H5.7v21a1 1 0 0 0 .33.78 1.15 1.15 0 0 0 .78.34h55.38zm-52.06-4.43V45.3H19v4.43zm13.3 0V45.3h13.29v4.43z"/></svg>