<svg id="gear" xmlns="http://www.w3.org/2000/svg" viewBox="0 0 64 64"><title>gear</title><path d="M41.14,32A9.15,9.15,0,0,0,32,22.85,9.15,9.15,0,0,0,22.85,32a8.88,8.88,0,0,0,2.68,6.46,9.14,9.14,0,0,0,12.93,0A8.89,8.89,0,0,0,41.14,32Zm18.29-3.9V36a1.35,1.35,0,0,1-.29.82,1.1,1.1,0,0,1-.71.46l-6.61,1a22.42,22.42,0,0,1-1.4,3.25q1.26,1.79,3.83,4.93a1.41,1.41,0,0,1,.35.9,1.14,1.14,0,0,1-.32.81,36.2,36.2,0,0,1-3.53,3.86q-2.57,2.54-3.36,2.54a1.75,1.75,0,0,1-.93-.32l-4.93-3.86a20.67,20.67,0,0,1-3.25,1.36,59.49,59.49,0,0,1-1,6.64,1.2,1.2,0,0,1-1.29,1H28a1.34,1.34,0,0,1-.87-.3,1.07,1.07,0,0,1-.41-.77l-1-6.57a22.22,22.22,0,0,1-3.22-1.32l-5,3.82a1.3,1.3,0,0,1-.9.32,1.21,1.21,0,0,1-.89-.4,47.56,47.56,0,0,1-5.9-6,1.41,1.41,0,0,1,0-1.63q.54-.75,1.82-2.37t1.93-2.52a17.92,17.92,0,0,1-1.46-3.54l-6.54-1a1.13,1.13,0,0,1-.75-.45,1.3,1.3,0,0,1-.28-.84V28a1.43,1.43,0,0,1,.28-.83,1,1,0,0,1,.68-.46l6.64-1a17.59,17.59,0,0,1,1.4-3.29q-1.43-2-3.82-4.92a1.34,1.34,0,0,1-.36-.86,1.49,1.49,0,0,1,.32-.82A35.09,35.09,0,0,1,13.23,12Q15.82,9.4,16.6,9.39a1.5,1.5,0,0,1,.93.36l4.93,3.82a20,20,0,0,1,3.25-1.35,57.27,57.27,0,0,1,1-6.65,1.2,1.2,0,0,1,1.28-1H36a1.38,1.38,0,0,1,.88.3,1,1,0,0,1,.4.77l1,6.58a21.62,21.62,0,0,1,3.22,1.32l5.07-3.82a1.14,1.14,0,0,1,.86-.33,1.41,1.41,0,0,1,.9.36,49.45,49.45,0,0,1,5.89,6.07,1.17,1.17,0,0,1,.25.79,1.35,1.35,0,0,1-.29.82q-.54.75-1.82,2.37t-1.93,2.52a21.27,21.27,0,0,1,1.46,3.5l6.54,1a1.13,1.13,0,0,1,.75.45,1.35,1.35,0,0,1,.29.84Z"/></svg>