<svg id="gift" xmlns="http://www.w3.org/2000/svg" viewBox="0 0 64 64"><title>gift5</title><path d="M38.45,51.86V23H25.54v28.9a1.79,1.79,0,0,0,.73,1.55,3.2,3.2,0,0,0,1.85.55h7.75a3,3,0,0,0,1.85-.55A1.84,1.84,0,0,0,38.45,51.86ZM20.06,17.8h7.87l-5.09-6.5A3.45,3.45,0,0,0,20.06,10a3.86,3.86,0,0,0-3.88,3.88,3.86,3.86,0,0,0,3.88,3.88Zm27.77-3.88A3.86,3.86,0,0,0,43.94,10a3.44,3.44,0,0,0-2.78,1.24l-5.05,6.5h7.83a3.86,3.86,0,0,0,3.88-3.86ZM63,24.25V37.17a1.24,1.24,0,0,1-1.29,1.29H57.83V55.25A3.86,3.86,0,0,1,54,59.13H10a3.86,3.86,0,0,1-3.88-3.88V38.46H2.29A1.24,1.24,0,0,1,1,37.17V24.25A1.24,1.24,0,0,1,2.29,23H20.06a8.71,8.71,0,0,1-6.4-2.64A8.71,8.71,0,0,1,11,13.92a8.71,8.71,0,0,1,2.64-6.4,8.71,8.71,0,0,1,6.4-2.64A8.18,8.18,0,0,1,26.84,8L32,14.66,37.16,8a8.18,8.18,0,0,1,6.78-3.11,8.71,8.71,0,0,1,6.4,2.64A8.73,8.73,0,0,1,53,13.92a9,9,0,0,1-9,9H61.69A1.24,1.24,0,0,1,63,24.25Z"/></svg>