<svg id="group" xmlns="http://www.w3.org/2000/svg" viewBox="0 0 69 64"><title>group</title><path d="M21.8,32a11.94,11.94,0,0,0-9.17,4.43H8A7.92,7.92,0,0,1,3.22,35a4.73,4.73,0,0,1-1.94-4.09q0-12.21,4.29-12.21a6.69,6.69,0,0,1,1.5.73,22.36,22.36,0,0,0,3.37,1.46,12.42,12.42,0,0,0,4.12.75,13.88,13.88,0,0,0,4.6-.79A18.1,18.1,0,0,0,19,23.16,15.24,15.24,0,0,0,21.8,32ZM58.86,54a8.63,8.63,0,0,1-2.52,6.56A9.35,9.35,0,0,1,49.61,63H19.38a9.34,9.34,0,0,1-6.71-2.4A8.59,8.59,0,0,1,10.15,54q0-1.84.12-3.58a33.7,33.7,0,0,1,.48-3.77,31,31,0,0,1,.91-3.75,17.13,17.13,0,0,1,1.49-3.38,12.36,12.36,0,0,1,2.14-2.8,9.08,9.08,0,0,1,3-1.85,10.06,10.06,0,0,1,3.86-.69,4.09,4.09,0,0,1,1.49.74q1.14.74,2.52,1.67a14.27,14.27,0,0,0,3.7,1.66A16.06,16.06,0,0,0,34.5,39a14.41,14.41,0,0,0,4.67-.75,16.51,16.51,0,0,0,3.7-1.66q1.39-.89,2.52-1.67a3.28,3.28,0,0,1,1.49-.74,10.42,10.42,0,0,1,3.86.69,9.06,9.06,0,0,1,3,1.85,11.77,11.77,0,0,1,2.14,2.81,19.44,19.44,0,0,1,1.49,3.37,25.09,25.09,0,0,1,.91,3.75q.34,2,.48,3.78T58.86,54ZM23.43,9.86a8.53,8.53,0,0,1-2.6,6.26,8.54,8.54,0,0,1-6.27,2.6,8.51,8.51,0,0,1-6.26-2.6,8.59,8.59,0,0,1-2.6-6.27A8.46,8.46,0,0,1,8.31,3.6,8.6,8.6,0,0,1,14.57,1a8.53,8.53,0,0,1,6.27,2.6,8.45,8.45,0,0,1,2.6,6.26ZM47.79,23.13A13.3,13.3,0,0,1,34.5,36.42a12.72,12.72,0,0,1-9.39-3.89,12.88,12.88,0,0,1-3.89-9.4,12.74,12.74,0,0,1,3.89-9.39,12.83,12.83,0,0,1,9.4-3.89,12.83,12.83,0,0,1,9.4,3.89,12.72,12.72,0,0,1,3.88,9.4Zm19.93,7.79A4.75,4.75,0,0,1,65.78,35,7.87,7.87,0,0,1,61,36.42H56.37A11.9,11.9,0,0,0,47.2,32,15.21,15.21,0,0,0,50,23.14a17.11,17.11,0,0,0-.17-2.29,13.88,13.88,0,0,0,4.6.79,12.15,12.15,0,0,0,4.12-.75,23.12,23.12,0,0,0,3.37-1.46,7.09,7.09,0,0,1,1.5-.73Q67.71,18.71,67.71,30.92ZM63.29,9.85a8.54,8.54,0,0,1-2.6,6.27,8.85,8.85,0,0,1-12.53,0,8.49,8.49,0,0,1-2.6-6.27,8.56,8.56,0,0,1,2.6-6.26A8.57,8.57,0,0,1,54.43,1a8.44,8.44,0,0,1,6.26,2.6A8.65,8.65,0,0,1,63.29,9.85Z"/></svg>