<svg id="heart" xmlns="http://www.w3.org/2000/svg" viewBox="0 0 64 64"><title>heart</title><path d="M32,58.57A2.07,2.07,0,0,1,30.48,58L8.89,37.12q-.34-.28-.95-.9T6,34a32.69,32.69,0,0,1-2.35-3.37A20.15,20.15,0,0,1,1.81,26.4,15.55,15.55,0,0,1,1,21.62Q1,14,5.4,9.72T17.54,5.43a13.74,13.74,0,0,1,4.38.75,18,18,0,0,1,4.16,2,39,39,0,0,1,3.29,2.37q1.37,1.11,2.63,2.35a30.1,30.1,0,0,1,2.63-2.35Q36,9.46,37.94,8.18a17.32,17.32,0,0,1,4.15-2,14.37,14.37,0,0,1,4.38-.75q7.75,0,12.15,4.29T63,21.62q0,7.64-7.92,15.57L33.52,58A2.07,2.07,0,0,1,32,58.57Z"/></svg>