<svg id="home" xmlns="http://www.w3.org/2000/svg" viewBox="0 0 59 64"><title>home</title><path d="M50.29,35.43V52.57a2.17,2.17,0,0,1-.68,1.6,2.29,2.29,0,0,1-1.61.69H34.29V41.14H25.14V54.86H11.43a2.17,2.17,0,0,1-1.6-.68,2.28,2.28,0,0,1-.69-1.6V35.42l0-.1,0-.11L29.72,18.28,50.25,35.21a.41.41,0,0,1,0,.2Zm8-2.47L56,35.61a1.23,1.23,0,0,1-.75.39h-.11a1.11,1.11,0,0,1-.75-.25L29.72,15.15,5,35.74a1.3,1.3,0,0,1-.86.25,1.21,1.21,0,0,1-.75-.4L1.18,33a1.12,1.12,0,0,1-.25-.84,1,1,0,0,1,.4-.76L27,10a4.43,4.43,0,0,1,5.43,0l8.71,7.29v-7a1.11,1.11,0,0,1,.32-.82,1.16,1.16,0,0,1,.83-.33h6.85a1.11,1.11,0,0,1,.82.32,1.12,1.12,0,0,1,.32.83V24.86l7.83,6.5a1,1,0,0,1,.39.76A1.14,1.14,0,0,1,58.25,33Z"/></svg>