<svg id="letter" xmlns="http://www.w3.org/2000/svg" viewBox="0 0 64 64"><title>letter</title><path d="M62.93,23.38V50.77A5.54,5.54,0,0,1,57.4,56.3H6.59a5.31,5.31,0,0,1-3.9-1.62,5.31,5.31,0,0,1-1.62-3.9V23.38a18.15,18.15,0,0,0,3.48,3Q17,34.87,21.72,38.28q2,1.45,3.19,2.26a20.09,20.09,0,0,0,3.26,1.66A9.73,9.73,0,0,0,32,43H32a10,10,0,0,0,3.8-.84,19.49,19.49,0,0,0,3.27-1.66q1.24-.82,3.19-2.26Q48.15,34,59.48,26.37A18.82,18.82,0,0,0,62.93,23.38Zm0-10.15a9.12,9.12,0,0,1-1.69,5.21A16.52,16.52,0,0,1,57,22.69L40.87,33.9,39.4,35q-1.12.81-1.87,1.31t-1.79,1.12a10.08,10.08,0,0,1-2,.93,5.62,5.62,0,0,1-1.73.31H32a5.47,5.47,0,0,1-1.72-.31,10.8,10.8,0,0,1-2-.93q-1.06-.62-1.79-1.12L24.6,35,23.13,33.9q-3.14-2.21-9-6.3T7,22.68a17.3,17.3,0,0,1-4-4A8,8,0,0,1,1.07,14,7,7,0,0,1,2.5,9.5,4.92,4.92,0,0,1,6.59,7.7H57.4a5.58,5.58,0,0,1,5.53,5.53Z"/></svg>