<svg id="lightning" xmlns="http://www.w3.org/2000/svg" viewBox="0 0 32 64"><title>lightning</title><path d="M30.93,18.53a1.28,1.28,0,0,1,.25,1.5L12.72,59.58a1.5,1.5,0,0,1-1.44.85,3,3,0,0,1-.48-.07,1.49,1.49,0,0,1-.87-.65,1.26,1.26,0,0,1-.15-1l6.73-27.61L2.63,34.52a1.57,1.57,0,0,1-.4,0,1.59,1.59,0,0,1-1.06-.37,1.3,1.3,0,0,1-.45-1.34L7.59,4.66a1.51,1.51,0,0,1,.55-.78,1.53,1.53,0,0,1,1-.31H20.31A1.5,1.5,0,0,1,21.4,4a1.4,1.4,0,0,1,.45,1,1.36,1.36,0,0,1-.17.61L15.83,21.45,29.36,18.1a2,2,0,0,1,.41-.07,1.61,1.61,0,0,1,1.17.52Z"/></svg>