<svg id="like" xmlns="http://www.w3.org/2000/svg" viewBox="0 0 64 64"><title>like</title><path d="M12.65,51.34a2.29,2.29,0,0,0-.72-1.69,2.41,2.41,0,0,0-1.69-.73,2.24,2.24,0,0,0-1.7.72,2.32,2.32,0,0,0-.72,1.7A2.4,2.4,0,0,0,8.54,53a2.28,2.28,0,0,0,1.69.73,2.46,2.46,0,0,0,2.42-2.42ZM56.18,29.58a5,5,0,0,0-4.84-4.83H38a15.4,15.4,0,0,1,1.82-6,15.25,15.25,0,0,0,1.81-6.06,9.89,9.89,0,0,0-1.21-5.48Q39.25,5.4,35.62,5.4a6.27,6.27,0,0,0-1.44,3.22q-.45,2.23-1.15,4.74a9.71,9.71,0,0,1-2.23,4.14q-.84.87-2.91,3.44L27,22.06q-.71,1-1.2,1.55l-1.3,1.6A20,20,0,0,1,23,26.89q-.7.68-1.46,1.33a7.4,7.4,0,0,1-1.5,1,2.72,2.72,0,0,1-1.34.34H17.47V53.76h1.22a8.11,8.11,0,0,1,1.18.11q.7.11,1.25.24t1.44.42l1.32.42q.43.14,1.34.48l1.09.4q8,2.75,12.92,2.75h4.57q7.25,0,7.25-6.3a12.79,12.79,0,0,0-.19-2.12,4.16,4.16,0,0,0,1.8-2,6.52,6.52,0,0,0,.67-2.78,5,5,0,0,0-.69-2.6,6,6,0,0,0,2-4.5,6.67,6.67,0,0,0-.38-2.09,5.24,5.24,0,0,0-1-1.8q1.22,0,2-1.78a7.25,7.25,0,0,0,.8-3.07Zm4.83,0a10.91,10.91,0,0,1-1.85,6.16,9.94,9.94,0,0,1,.34,2.61,10.81,10.81,0,0,1-1.44,5.44,12.31,12.31,0,0,1,.11,1.63,10.63,10.63,0,0,1-2.26,6.72,10.67,10.67,0,0,1-3.2,8.29,12.08,12.08,0,0,1-8.57,3H39.25a30.59,30.59,0,0,1-7.15-.85,84,84,0,0,1-8.19-2.49,28.12,28.12,0,0,0-5.2-1.5H7.82A4.63,4.63,0,0,1,4.4,57.18,4.72,4.72,0,0,1,3,53.75V29.58A4.63,4.63,0,0,1,4.4,26.17a4.71,4.71,0,0,1,3.42-1.42H18.17q1.35-.91,5.17-5.86,2.19-2.83,4-4.83a6.42,6.42,0,0,0,1.34-3.23Q29.16,8.56,29.88,6A9,9,0,0,1,32.22,2a4.81,4.81,0,0,1,3.4-1.4A13,13,0,0,1,41.32,1.8a8.23,8.23,0,0,1,3.85,3.84,15.87,15.87,0,0,1,1.32,7,16.64,16.64,0,0,1-1.81,7.26h6.64a9.29,9.29,0,0,1,6.8,2.87A9.29,9.29,0,0,1,61,29.55Z"/></svg>