<svg id="logo" xmlns="http://www.w3.org/2000/svg" viewBox="0 0 100 100"><title>logo</title><path d="M59.29,33.38C49.32,29,38.84,27,28.26,26c-3.8-.31-7.4,1.23-8.94,3.6.1.1.1.21.21.31,3.08.92,4.73,2.67,4.83,5.24a6.05,6.05,0,0,1-4.62,6c-4,1.34-7.91.82-11.92-1.64-.31,2.26-.62,4.11-.72,6.06a81.92,81.92,0,0,0,.21,10.07c.31,3.08,1.44,3.9,4.52,4.11,3.29.21,6.57.31,10.07.51.62-5.65,3.49-10.07,7-14.07,5-5.86,11.71-6,18.59-4a21.39,21.39,0,0,1,6.47,3.29c3.9,3,5.75,7.29,7,11.81a20.62,20.62,0,0,1,.51,2.67c-2.77-4.73-5.86-8.32-10.17-10.79C48.4,47.46,45.52,46,41.93,46,37.3,46,31,50,29.7,54.55A72.91,72.91,0,0,0,28,64a22.14,22.14,0,0,0,0,3.7H17.68c3.7,6.06,5,13.25,13.15,15.72C27,85,24.57,83.41,22,82.08c-3.49-2.05-6-5.14-8.22-8.42a35.94,35.94,0,0,0-3.8-5A4.94,4.94,0,0,0,7.2,67.39a39.51,39.51,0,0,0-5.14-.51,46.58,46.58,0,0,1,.1-6.57c.1-.72,1-1.44,1.75-2.05a22.73,22.73,0,0,0,2.77-2.47A43.06,43.06,0,0,1,3.3,53.11C.94,50.74.63,48.18,3,45.81,5.77,43,6,39.44,6.49,36c.41-2.57,1.44-4.52,4.11-5.14,2.16-.51,3.29-2,4.31-3.7C17,23.62,19,20.23,21.18,16.84A4.2,4.2,0,0,1,26.83,15a115.45,115.45,0,0,1,11,6.16c3.18,2,6.27,4.21,9.25,6.47a3.27,3.27,0,0,0,4.21.21,68.79,68.79,0,0,0,7-5.24c2.16-2.05,4.21-2.47,6.68-.82,1.85,1.23,3.7,2.36,5.34,3.7,2.16,1.64,2.16,4,1.64,6.37-.41,1.85-2.26,2.77-4.42,2.26s-4-1.44-6-2.05c-1.34-.62-2.47-.41-2.26,1.34Z"/><path d="M85.89,70.88H98.63v5.86H67.51V70.88H79.11a5.09,5.09,0,0,0,2.05-.82c-.62-.72-1.13-1.75-1.85-2.16a7.7,7.7,0,0,0-3.08-.21l-14.07.62c-.41,0-.72.1-1.13.1a.93.93,0,0,1-.1.51c.92.21,1.85.41,2.88.62-1.13,2.16-3.18,3-5.65,4,.82.51,1.64.92,3,1.75-2.36.72-4.31,1.34-6.68,2.16.51.51,1.13,1.23,2,2.05-2,1.23-4.21.82-7.09.31.82,1.23,1.44,2.05,2,2.88-2.26.72-4.31-.21-7-1.44.51,1.44.92,2.26,1.23,3.29-2.36.1-4.21-1.23-6.47-3.18.1,1.44.21,2.47.31,4.11-2.05-1.85-3.7-3.29-5.55-4.83-.1.92-.31,1.85-.41,3-2.16-1-3.08-3.08-4.11-5.75-.62,1.23-1.13,2.05-1.85,3.39q-1.21-3.33-2.36-6.68c-.51.72-1.13,1.44-1.85,2.36-1.34-2.26-1.34-4.73-.41-7.5C29.6,79.82,38.43,83.51,50,78.69,56.41,76,61.45,68,61.14,61.43h15.2c-.51-6.27-4.11-11-6.27-16.23,3.08,3.39,6,6.88,7.4,11.3.72,2.16,1,4.31,1.54,6.57.62,2.57,1.54,3.29,4.11,3.08a16.53,16.53,0,0,1,3.9,0c.51.1,1,.92,1.44,1.54-.51.31-1,.82-1.64.82-1.23,0-1.44.82-.92,2.36Z"/><path d="M42.75,54.24A6,6,0,0,1,49,60.5,6.12,6.12,0,0,1,43,66.77a6.27,6.27,0,0,1-.21-12.53Z"/></svg>