<svg id="paper-clip" data-name="paper clip" xmlns="http://www.w3.org/2000/svg" viewBox="0 0 50 64"><title>paper-clip</title><path d="M49.18,48.89a9.32,9.32,0,0,1-9.5,9.5,11.14,11.14,0,0,1-8.12-3.45L4.74,28.14A12.88,12.88,0,0,1,.82,18.77a12.74,12.74,0,0,1,3.8-9.32,12.62,12.62,0,0,1,9.29-3.84,13,13,0,0,1,9.44,3.91L44.24,30.45a1.06,1.06,0,0,1,.35.76q0,.55-1.05,1.61t-1.61,1.05a1.09,1.09,0,0,1-.79-.35l-20.93-21A8.7,8.7,0,0,0,14,9.9,8.29,8.29,0,0,0,7.76,12.5a8.66,8.66,0,0,0-2.51,6.26A8.55,8.55,0,0,0,7.86,25L34.68,51.83a6.89,6.89,0,0,0,5,2.18,5,5,0,0,0,5.12-5.12,6.89,6.89,0,0,0-2.18-5L22.54,23.81A3,3,0,0,0,20.47,23a2.25,2.25,0,0,0-2.32,2.31,2.91,2.91,0,0,0,.87,2L33.18,41.51a1.06,1.06,0,0,1,.35.76q0,.55-1.07,1.62T30.83,45a1.08,1.08,0,0,1-.76-.34L15.92,30.45a6.89,6.89,0,0,1-2.18-5.15,6.51,6.51,0,0,1,2-4.8,6.58,6.58,0,0,1,4.8-2,6.89,6.89,0,0,1,5.15,2.18L45.73,40.78a11,11,0,0,1,3.45,8.12Z"/></svg>