<svg id="search" data-name="Слой 1" xmlns="http://www.w3.org/2000/svg" viewBox="0 0 60.88 60.88"><path d="M41.8 25.8a15.41 15.41 0 0 0-4.7-11.3 15.4 15.4 0 0 0-11.3-4.7 15.41 15.41 0 0 0-11.3 4.7 15.41 15.41 0 0 0-4.7 11.3 15.41 15.41 0 0 0 4.7 11.3 15.41 15.41 0 0 0 11.3 4.7 15.4 15.4 0 0 0 11.3-4.7 15.41 15.41 0 0 0 4.7-11.3zm18.29 29.72a4.63 4.63 0 0 1-4.57 4.57 4.24 4.24 0 0 1-3.21-1.36L40.05 46.52a24.46 24.46 0 0 1-14.25 4.43A24.71 24.71 0 0 1 16 49 24.62 24.62 0 0 1 2.64 35.57a25.06 25.06 0 0 1 0-19.57A24.62 24.62 0 0 1 16 2.64a25.06 25.06 0 0 1 19.54 0A24.62 24.62 0 0 1 49 16a24.71 24.71 0 0 1 2 9.77 24.46 24.46 0 0 1-4.43 14.25l12.2 12.28a4.37 4.37 0 0 1 1.32 3.22z"/></svg>