<svg id="shopping-cart" data-name="shopping cart" xmlns="http://www.w3.org/2000/svg" viewBox="0 0 59 64"><title>shopping_cart</title><path d="M22.89,51.85a4.48,4.48,0,0,1-4.41,4.41,4.27,4.27,0,0,1-3.11-1.31,4.15,4.15,0,0,1-1.3-3.1,4.39,4.39,0,0,1,1.3-3.11,4.11,4.11,0,0,1,3.11-1.3,4.27,4.27,0,0,1,3.1,1.3A4.39,4.39,0,0,1,22.89,51.85Zm30.87,0a4.39,4.39,0,0,1-7.52,3.1,4.15,4.15,0,0,1-1.3-3.1,4.39,4.39,0,0,1,1.3-3.11,4.11,4.11,0,0,1,3.11-1.3,4.27,4.27,0,0,1,3.1,1.3A4.39,4.39,0,0,1,53.76,51.85Zm4.41-37.49V32a2.12,2.12,0,0,1-.57,1.46,2.2,2.2,0,0,1-1.4.74l-36,4.21a20.83,20.83,0,0,1,.44,2.41A6.74,6.74,0,0,1,19.86,43H51.55a2.11,2.11,0,0,1,1.54.65,2.19,2.19,0,0,1,.67,1.55,2,2,0,0,1-.66,1.54,2.31,2.31,0,0,1-1.54.67H16.27a2.09,2.09,0,0,1-1.54-.66,2.16,2.16,0,0,1-.66-1.54,3.33,3.33,0,0,1,.27-1.09,12.3,12.3,0,0,1,.55-1.24q.28-.54.74-1.38t.53-1l-6.1-28.37h-7a2.12,2.12,0,0,1-1.55-.66A2.14,2.14,0,0,1,.83,10a2.08,2.08,0,0,1,.66-1.54A2.12,2.12,0,0,1,3,7.74h8.83a2.13,2.13,0,0,1,1,.22,1.93,1.93,0,0,1,.68.54,3.49,3.49,0,0,1,.44.84,5,5,0,0,1,.27.9q.07.38.19,1t.15.9H56a2.13,2.13,0,0,1,1.54.65A2.1,2.1,0,0,1,58.17,14.36Z"/></svg>