<svg id="signin" xmlns="http://www.w3.org/2000/svg" viewBox="0 0 64 64"><title>signin</title><path d="M49.08,32a2.49,2.49,0,0,1-.78,1.84L26,56.18a2.52,2.52,0,0,1-1.84.78,2.59,2.59,0,0,1-1.86-.78,2.38,2.38,0,0,1-.77-1.85V42.5H3.11a2.53,2.53,0,0,1-1.85-.78,2.52,2.52,0,0,1-.78-1.84V24.11a2.49,2.49,0,0,1,.78-1.84,2.58,2.58,0,0,1,1.84-.78H21.49V9.67a2.49,2.49,0,0,1,.78-1.84A2.59,2.59,0,0,1,24.12,7,2.45,2.45,0,0,1,26,7.82L48.31,30.16A2.53,2.53,0,0,1,49.09,32ZM63.52,17.55V46.44A11.85,11.85,0,0,1,51.7,58.26H38.56A1.33,1.33,0,0,1,37.25,57l0-.83a9,9,0,0,1,0-1.08,7.29,7.29,0,0,1,.13-1,1.35,1.35,0,0,1,.41-.8,1.25,1.25,0,0,1,.84-.26H51.7a6.57,6.57,0,0,0,6.56-6.57V17.55a6.35,6.35,0,0,0-1.92-4.64A6.27,6.27,0,0,0,51.7,11H38.89l-.47,0-.48-.11-.32-.23-.29-.37-.08-.56,0-.82a9.18,9.18,0,0,1,0-1.09,7,7,0,0,1,.13-1,1.4,1.4,0,0,1,.41-.8,1.14,1.14,0,0,1,.84-.25H51.7A11.41,11.41,0,0,1,60,9.2a11.32,11.32,0,0,1,3.46,8.35Z"/></svg>