<svg id="star" xmlns="http://www.w3.org/2000/svg" viewBox="0 0 59 59"><title>star</title><path d="M58.5,23.28A2.5,2.5,0,0,1,57.6,25L44.95,37.29l3,17.43a6.21,6.21,0,0,1,0,.69,2.08,2.08,0,0,1-.36,1.24,1.23,1.23,0,0,1-1.07.51,2.8,2.8,0,0,1-1.39-.42L29.5,48.52,13.86,56.74a3,3,0,0,1-1.4.42,1.28,1.28,0,0,1-1.1-.51A2,2,0,0,1,11,55.43a5.77,5.77,0,0,1,.07-.7l3-17.43L1.37,25A2.63,2.63,0,0,1,.5,23.29q0-1.29,2-1.61L20,19.14,27.79,3.27q.66-1.43,1.71-1.43t1.71,1.43l7.85,15.86,17.5,2.54Q58.51,22,58.5,23.28Z"/></svg>