<svg id="twitter" xmlns="http://www.w3.org/2000/svg" viewBox="0 0 64 64"><title>twitter2</title><path d="M52.7,20.44a18,18,0,0,1-4.89,1.37,8.25,8.25,0,0,0,3.76-4.73,16.75,16.75,0,0,1-5.41,2.06A8.08,8.08,0,0,0,40,16.46a8.51,8.51,0,0,0-8.53,8.49s0,0,0,.05a7.78,7.78,0,0,0,.2,2,24.08,24.08,0,0,1-9.78-2.63A24,24,0,0,1,14.12,18,8.47,8.47,0,0,0,13,22.3a8,8,0,0,0,3.68,7.08,10.09,10.09,0,0,1-4-1v.08a8.1,8.1,0,0,0,2,5.4,8.47,8.47,0,0,0,5,2.93,8.11,8.11,0,0,1-2.07.32A11.64,11.64,0,0,1,16,36.9a8.61,8.61,0,0,0,3,4.2A8.11,8.11,0,0,0,24,42.8,16.75,16.75,0,0,1,13.4,46.45a17.55,17.55,0,0,1-2-.11,23.88,23.88,0,0,0,13,3.79,24.71,24.71,0,0,0,8.49-1.44,21.85,21.85,0,0,0,6.79-3.85,25.63,25.63,0,0,0,4.87-5.54,24.75,24.75,0,0,0,3-6.55,23.46,23.46,0,0,0,1-6.82V24.84a16.52,16.52,0,0,0,4.25-4.42Zm10.36-7.85V51.41A11.68,11.68,0,0,1,51.41,63.06H12.58a11.19,11.19,0,0,1-8.22-3.42A11.28,11.28,0,0,1,.94,51.41V12.59A11.22,11.22,0,0,1,4.36,4.36,11.21,11.21,0,0,1,12.58.94H51.42a11.21,11.21,0,0,1,8.22,3.42A11.22,11.22,0,0,1,63.06,12.59Z"/></svg>