<svg id="vk" xmlns="http://www.w3.org/2000/svg" viewBox="0 0 69 64"><title>vk</title><path d="M68.34,15.44Q69.17,17.7,63,25.83l-2.3,3q-1.42,1.8-1.95,2.54a16,16,0,0,0-1.08,1.75,2.38,2.38,0,0,0-.43,1.48,7.14,7.14,0,0,0,.47,1.22,5.25,5.25,0,0,0,1.15,1.51q.8.77,2,1.88a.34.34,0,0,1,.17.14,35.22,35.22,0,0,1,6.76,7.82l.23.44a4,4,0,0,1,.25.93,2.84,2.84,0,0,1,0,1.21,1.67,1.67,0,0,1-.89,1,4.38,4.38,0,0,1-2.08.45l-9,.14a3.93,3.93,0,0,1-2-.18,8.8,8.8,0,0,1-1.84-.78l-.7-.42a15.94,15.94,0,0,1-2.47-2.27q-1.41-1.52-2.42-2.74a12.27,12.27,0,0,0-2.16-2,2.22,2.22,0,0,0-2-.54l-.28.12a3.09,3.09,0,0,0-.6.51,4.55,4.55,0,0,0-.76,1,7,7,0,0,0-.59,1.84,12.59,12.59,0,0,0-.24,2.74,3.76,3.76,0,0,1-.12,1,2.09,2.09,0,0,1-.27.65l-.14.18a2.85,2.85,0,0,1-1.88.78H33.79a16,16,0,0,1-5.17-.59A20.3,20.3,0,0,1,24,48.71a38.88,38.88,0,0,1-3.63-2.33,22.42,22.42,0,0,1-2.49-2L17,43.5q-.35-.36-1-1.06t-2.52-3.23q-1.9-2.52-3.75-5.34T5.39,26.42Q2.91,21.79.78,16.8a2.74,2.74,0,0,1-.22-.95,1.12,1.12,0,0,1,.11-.56l.14-.22a2.47,2.47,0,0,1,2-.67l9.69-.07a3.38,3.38,0,0,1,.81.24,3.21,3.21,0,0,1,.56.3l.18.1a2.34,2.34,0,0,1,.84,1.14q.71,1.77,1.63,3.66T18,22.63l.56,1q1,2.13,2,3.68a17.52,17.52,0,0,0,1.71,2.41,8.85,8.85,0,0,0,1.47,1.37,2.16,2.16,0,0,0,1.2.49,3,3,0,0,0,.95-.18.73.73,0,0,0,.18-.18,6.12,6.12,0,0,0,.43-.78,5.83,5.83,0,0,0,.47-1.66q.16-1,.34-2.86a27.2,27.2,0,0,0,0-4.41A16.13,16.13,0,0,0,27,19a7.11,7.11,0,0,0-.49-1.63l-.21-.43a4.34,4.34,0,0,0-3-1.52q-.46-.07.18-.84a4.23,4.23,0,0,1,1.35-1.07q1.88-.91,8.44-.84a23.15,23.15,0,0,1,4.77.46,4.13,4.13,0,0,1,1.19.47,1.87,1.87,0,0,1,.72.85,6,6,0,0,1,.38,1.13,7.46,7.46,0,0,1,.12,1.61q0,1,0,1.94t-.1,2.49q-.08,1.59,0,2.92l0,1.48q0,1.09,0,1.69a12.9,12.9,0,0,0,.12,1.43,3.8,3.8,0,0,0,.42,1.38,2.43,2.43,0,0,0,.79.86l.59.15q.32.07.93-.4a11.71,11.71,0,0,0,1.34-1.22,20.29,20.29,0,0,0,1.84-2.37q1.12-1.61,2.4-3.8a57.58,57.58,0,0,0,3.78-8,2.34,2.34,0,0,1,.36-.61,1.82,1.82,0,0,1,.39-.38l.14-.1.18-.1.47-.1.7,0,10.18-.07a5.35,5.35,0,0,1,2.26.1,2.2,2.2,0,0,1,1.09.57Z"/></svg>